<?xml version="1.0" encoding="UTF-8" standalone="no"?>
<!DOCTYPE svg  PUBLIC '-//W3C//DTD SVG 1.1//EN'  'http://www.w3.org/Graphics/SVG/1.1/DTD/svg11.dtd'>
<svg xmlns="http://www.w3.org/2000/svg" version="1.1">
<defs>
<font id="RNSSanz-Bold" horiz-adv-x="0">
<font-face font-family="z" unicode-range="U+0020-0327" font-weight="700" panose-1="0 0 8 0 0 0 0 0 0 0" ascent="800" x-height="479" units-per-em="1000" cap-height="690" descent="-200" bbox="-409 -204 977 930" underline-thickness="50" underline-position="-150"/>
<missing-glyph/>
<glyph horiz-adv-x="221" unicode=" " glyph-name="space"/>
<glyph horiz-adv-x="295" d="M68 690h158l-37 -471h-83zM66 69q0 40 21 60.5t61 20.5t60.5 -20.5t20.5 -60.5t-20.5 -61t-60.5 -21q-82 0 -82 82z" unicode="!" glyph-name="exclam"/>
<glyph horiz-adv-x="490" d="M54 674h155l-30 -269h-95zM281 674h155l-30 -269h-95z" unicode='&quot;' glyph-name="quotedbl"/>
<glyph horiz-adv-x="658" d="M494 414l-25 -156h123l8 -104h-147l-25 -154h-77l25 154h-153l-25 -154h-77l25 154h-104v104h120l25 156h-121l-8 104h146l27 172h77l-27 -172h153l27 172h77l-27 -172h105v-104h-122zM417 414h-153l-25 -156h153z" unicode="#" glyph-name="numbersign"/>
<glyph horiz-adv-x="583" d="M491 60q-47 -50 -133 -66l9 -89h-138l8 84q-54 4 -106 16t-86 30l34 125q41 -23 92 -37t106 -14q50 0 80 20t30 56q0 26 -16.5 45t-40.5 32.5t-69 33.5q-62 29 -103 54t-70 65.5t-29 97.5q0 75 49 122.5t129 61.5l-8 83h138l-8 -80q46 -5 88.5 -15.5t68.5 -25.5l-35 -122 q-34 19 -84 31.5t-88 12.5q-46 0 -72 -18t-26 -51q0 -35 31 -58t95 -53q64 -29 103.5 -52.5t68.5 -64t29 -99.5q0 -75 -47 -125z" unicode="$" glyph-name="dollar"/>
<glyph horiz-adv-x="867" d="M88 366.5q-41 49.5 -41 143.5t41 143.5t120 49.5t120 -49t41 -143q0 -95 -41 -144.5t-120 -49.5t-120 49.5zM590 690h84l-398 -690h-83zM262.5 421.5q18.5 31.5 18.5 89.5t-19 89.5t-54 31.5q-36 0 -54.5 -31.5t-18.5 -90.5q0 -58 19 -89t55 -31q35 0 53.5 31.5zM539 36 q-41 49 -41 143q0 95 41 144.5t120 49.5t120 -49.5t41 -143.5t-41 -143.5t-120 -49.5t-120 49zM713 89.5q19 31.5 19 90.5q0 58 -19 89t-55 31q-35 0 -53.5 -31t-18.5 -90q0 -58 19 -89.5t54 -31.5t54 31.5z" unicode="%" glyph-name="percent"/>
<glyph horiz-adv-x="666" d="M452 73q-44 -43 -92.5 -64.5t-110.5 -21.5q-99 0 -156.5 49t-57.5 138q0 66 35 118t108 92q-61 76 -61 156q0 77 50.5 120t144.5 43q97 0 179 -45l-19 -112q-86 47 -146 47q-36 0 -55.5 -17t-19.5 -46q0 -24 12.5 -49.5t34.5 -49.5l156 -174q27 66 38 155h110 q-18 -148 -72 -244l146 -168h-157zM165 190q0 -47 30 -74.5t82 -27.5q67 0 112 59l-146 162q-78 -47 -78 -119z" unicode="&amp;" glyph-name="ampersand"/>
<glyph horiz-adv-x="262" d="M54 674h155l-30 -269h-95z" unicode="&apos;" glyph-name="quotesingle"/>
<glyph horiz-adv-x="378" d="M122 61q-68 114 -68 253q0 132 68 242t184 166l52 -65q-75 -65 -115.5 -154t-40.5 -189q0 -102 41 -198t115 -160l-52 -65q-116 56 -184 170z" unicode="(" glyph-name="parenleft"/>
<glyph horiz-adv-x="378" d="M20 -44q74 64 115 160t41 198q0 100 -40.5 189t-115.5 154l51 65q117 -56 185 -166t68 -242q0 -139 -68 -253t-185 -170z" unicode=")" glyph-name="parenright"/>
<glyph horiz-adv-x="382" d="M70 449l70 91l-109 31l22 69l107 -41l-5 114h72l-5 -113l107 40l22 -69l-109 -32l72 -88l-58 -43l-64 94l-64 -95z" unicode="*" glyph-name="asterisk"/>
<glyph horiz-adv-x="570" d="M513 233h-173v-175h-108v175h-175v104h175v167h108v-167h173v-104z" unicode="+" glyph-name="plus"/>
<glyph horiz-adv-x="247" d="M30 -111l40 258h146l-109 -278z" unicode="," glyph-name="comma"/>
<glyph horiz-adv-x="361" d="M47 363h268v-122h-268v122z" unicode="-" glyph-name="hyphen"/>
<glyph horiz-adv-x="260" d="M49 69q0 40 21 60.5t61 20.5t60.5 -20.5t20.5 -60.5t-20.5 -61t-60.5 -21q-82 0 -82 82z" unicode="." glyph-name="period"/>
<glyph horiz-adv-x="541" d="M411 690h121l-447 -821h-120z" unicode="/" glyph-name="slash"/>
<glyph horiz-adv-x="633" d="M113 77q-69 90 -69 263t69 263t202 90q134 0 203.5 -90t69.5 -263t-69.5 -263t-203.5 -90q-133 0 -202 90zM453 340q0 238 -138 238q-135 0 -135 -238t135 -238q138 0 138 238z" unicode="0" glyph-name="zero"/>
<glyph horiz-adv-x="405" d="M175 550l-137 -58l-15 110l167 81h121v-683h-136v550z" unicode="1" glyph-name="one"/>
<glyph horiz-adv-x="548" d="M47 100q124 104 212.5 214.5t88.5 182.5q0 39 -26.5 60t-72.5 21q-75 0 -170 -66l-22 110q97 71 214 71q104 0 159.5 -47.5t55.5 -133.5q0 -180 -258 -400h278v-112h-435z" unicode="2" glyph-name="two"/>
<glyph horiz-adv-x="545" d="M35 34l16 116q93 -48 174 -48q67 0 101.5 24.5t34.5 71.5q0 50 -41 76.5t-117 26.5h-41l-7 98h52q68 0 104 25.5t36 71.5q0 40 -28.5 61t-82.5 21q-42 0 -86.5 -13.5t-85.5 -39.5l-17 108q41 29 95 44.5t116 15.5q113 0 171.5 -45t58.5 -131q0 -57 -30.5 -98.5 t-90.5 -63.5q65 -19 99 -62.5t34 -106.5q0 -98 -65 -148.5t-189 -50.5q-112 0 -211 47z" unicode="3" glyph-name="three"/>
<glyph horiz-adv-x="609" d="M351 142h-327v89l300 452h163v-444h96v-97h-96v-142h-136v142zM351 239v305l-203 -305h203z" unicode="4" glyph-name="four"/>
<glyph horiz-adv-x="549" d="M39 30l16 116q93 -41 181 -41q69 0 104.5 28.5t35.5 84.5q0 50 -30 76.5t-88 26.5q-56 0 -106 -22l-88 15l29 369h385v-112h-279l-10 -155q42 12 98 12q107 0 163 -54.5t56 -156.5q0 -112 -67 -169.5t-195 -57.5q-102 0 -205 40z" unicode="5" glyph-name="five"/>
<glyph horiz-adv-x="567" d="M107.5 62q-65.5 75 -65.5 211q0 110 47.5 198t132.5 145t197 77l22 -117q-101 -19 -168 -69.5t-95 -128.5l6 -5q77 50 157 50q93 0 144 -53.5t51 -151.5q0 -110 -63.5 -170.5t-177.5 -60.5q-122 0 -187.5 75zM375 123q29 30 29 86q0 55 -28 83.5t-81 28.5 q-44 0 -76 -20.5t-49 -59.5q0 -72 31 -110t90 -38q55 0 84 30z" unicode="6" glyph-name="six"/>
<glyph horiz-adv-x="533" d="M355 571h-316v112h455v-115l-251 -568h-146z" unicode="7" glyph-name="seven"/>
<glyph horiz-adv-x="582" d="M104.5 36.5q-67.5 49.5 -67.5 138.5q0 52 33.5 100t95.5 82q-48 30 -73 70t-25 86q0 86 59 133t167 47q105 0 162.5 -45.5t57.5 -127.5q0 -44 -25 -85.5t-71 -73.5q62 -29 95 -74.5t33 -102.5q0 -94 -66 -145.5t-187 -51.5t-188.5 49.5zM371.5 447q20.5 30 20.5 65 q0 40 -25 61.5t-73 21.5q-49 0 -74.5 -22.5t-25.5 -63.5t30 -68t91 -43q36 19 56.5 49zM378 111.5q30 24.5 30 70.5q0 44 -36.5 74t-111.5 53q-44 -21 -68 -52.5t-24 -68.5q1 -49 33.5 -75t91.5 -26q55 0 85 24.5z" unicode="8" glyph-name="eight"/>
<glyph horiz-adv-x="570" d="M125 104q103 19 171.5 68t96.5 124l-6 5q-75 -49 -157 -49q-94 0 -144.5 55.5t-50.5 156.5q0 112 62.5 170.5t177.5 58.5q124 0 189 -75t65 -213q0 -113 -49 -201t-135.5 -143.5t-196.5 -73.5zM402 433q0 75 -30 114.5t-87 39.5t-87 -30.5t-30 -87.5q0 -56 28 -86t81 -30 q89 0 125 80z" unicode="9" glyph-name="nine"/>
<glyph horiz-adv-x="270" d="M54 411q0 40 21 60.5t61 20.5t60.5 -20.5t20.5 -60.5t-20.5 -61t-60.5 -21q-82 0 -82 82zM54 69q0 40 21 60.5t61 20.5t60.5 -20.5t20.5 -60.5t-20.5 -61t-60.5 -21q-82 0 -82 82z" unicode=":" glyph-name="colon"/>
<glyph horiz-adv-x="270" d="M54 411q0 40 21 60.5t61 20.5t60.5 -20.5t20.5 -60.5t-20.5 -61t-60.5 -21q-82 0 -82 82zM27 -111l40 258h146l-109 -278z" unicode=";" glyph-name="semicolon"/>
<glyph horiz-adv-x="570" d="M57 248v91l456 229v-131l-330 -143l330 -145v-131z" unicode="&lt;" glyph-name="less"/>
<glyph horiz-adv-x="570" d="M57 444h456v-104h-456v104zM57 236h456v-104h-456v104z" unicode="=" glyph-name="equal"/>
<glyph horiz-adv-x="570" d="M57 150l330 144l-330 144v130l456 -229v-91l-456 -230v132z" unicode="&gt;" glyph-name="greater"/>
<glyph horiz-adv-x="500" d="M163 369q87 31 127.5 61.5t40.5 75.5q0 37 -25.5 58t-72.5 21q-43 0 -92.5 -17.5t-91.5 -47.5l-17 117q49 31 106.5 48.5t113.5 17.5q65 0 113.5 -23.5t74.5 -65.5t26 -96q0 -75 -52 -126.5t-153 -83.5l-5 -92h-83zM133 69q0 40 21 60.5t61 20.5t60.5 -20.5t20.5 -60.5 t-20.5 -61t-60.5 -21q-82 0 -82 82z" unicode="?" glyph-name="question"/>
<glyph horiz-adv-x="861" d="M45 213q0 133 51 230.5t149 150.5t235 53q166 0 251.5 -82t85.5 -243q0 -127 -51 -195t-145 -68q-52 0 -85 22t-45 64q-40 -45 -74 -65.5t-71 -20.5q-50 0 -76.5 37t-26.5 110q0 77 28.5 135.5t82.5 91t127 32.5q67 0 142 -32l-34 -215q-2 -14 -2 -28q0 -66 62 -66 q55 0 84 50.5t29 142.5q0 143 -70.5 213.5t-213.5 70.5q-120 0 -205 -47.5t-129 -135t-44 -205.5q0 -152 75 -225.5t227 -73.5q119 0 199 40l17 -38q-88 -47 -223 -47q-350 0 -350 344zM490 219l25 158q-18 9 -45 9q-58 0 -90.5 -44t-32.5 -118q0 -41 11.5 -60.5t34.5 -19.5 q49 0 97 75z" unicode="@" glyph-name="at"/>
<glyph horiz-adv-x="725" d="M492 148h-270l-48 -148h-155l246 690h195l246 -690h-166zM456 258l-95 292h-8l-95 -292h198z" unicode="A" glyph-name="A"/>
<glyph horiz-adv-x="654" d="M96 690h271q99 0 153 -45.5t54 -129.5q0 -56 -30 -96t-84 -58q68 -16 105 -60t37 -110q0 -92 -63.5 -141.5t-180.5 -49.5h-262v690zM338 389q48 0 74 24t26 68q0 42 -24 64.5t-68 22.5h-102v-179h94zM346 122q50 0 77.5 22.5t27.5 65.5q0 45 -29.5 69.5t-83.5 24.5h-94 v-182h102z" unicode="B" glyph-name="B"/>
<glyph horiz-adv-x="631" d="M144.5 79.5q-85.5 92.5 -85.5 263.5q0 173 86 266.5t243 93.5q61 0 113 -14t88 -40l-49 -113q-72 39 -146 39q-90 0 -136.5 -59.5t-46.5 -173.5q0 -227 185 -227q81 0 153 44l48 -115q-43 -27 -97.5 -42t-111.5 -15q-158 0 -243.5 92.5z" unicode="C" glyph-name="C"/>
<glyph horiz-adv-x="744" d="M96 690h256q160 0 246.5 -89.5t86.5 -255.5t-86.5 -255.5t-246.5 -89.5h-256v690zM337 122q94 0 145 58t51 165t-51 165t-145 58h-93v-446h93z" unicode="D" glyph-name="D"/>
<glyph horiz-adv-x="603" d="M531 122v-122h-435v690h428v-122h-280v-160h241v-121h-241v-165h287z" unicode="E" glyph-name="E"/>
<glyph horiz-adv-x="582" d="M244 568v-177h245v-122h-245v-269h-148v690h421v-122h-273z" unicode="F" glyph-name="F"/>
<glyph horiz-adv-x="746" d="M144.5 79.5q-85.5 92.5 -85.5 263.5q0 173 86 266.5t243 93.5q60 0 112.5 -14.5t88.5 -39.5l-40 -113q-38 20 -75 29.5t-80 9.5q-90 0 -136.5 -59.5t-46.5 -173.5q0 -111 47 -169t138 -58q35 0 69.5 8.5t56.5 22.5v228h138v-301q-55 -42 -124 -64t-148 -22 q-158 0 -243.5 92.5z" unicode="G" glyph-name="G"/>
<glyph horiz-adv-x="764" d="M96 690h148v-281h275v281h148v-690h-148v287h-275v-287h-148v690z" unicode="H" glyph-name="H"/>
<glyph horiz-adv-x="341" d="M96 690h148v-690h-148v690z" unicode="I" glyph-name="I"/>
<glyph horiz-adv-x="430" d="M28 -7l-10 131q31 -9 75 -9q99 0 99 116v459h148v-459q0 -118 -62.5 -181t-183.5 -63q-36 0 -66 6z" unicode="J" glyph-name="J"/>
<glyph horiz-adv-x="697" d="M669 0h-176l-241 313h-8v-313h-148v690h148v-294h8l222 294h174l-254 -330z" unicode="K" glyph-name="K"/>
<glyph horiz-adv-x="527" d="M96 690h148v-568h250v-122h-398v690z" unicode="L" glyph-name="L"/>
<glyph horiz-adv-x="906" d="M102 690h179l170 -428h8l173 428h176l20 -690h-148l-12 450h-8l-158 -377h-108l-156 377h-8l-14 -450h-135z" unicode="M" glyph-name="M"/>
<glyph horiz-adv-x="764" d="M96 690h156l259 -432h8v432h148v-690h-143l-272 450h-8v-450h-148v690z" unicode="N" glyph-name="N"/>
<glyph horiz-adv-x="785" d="M145.5 80q-86.5 93 -86.5 264q0 172 86.5 265.5t244.5 93.5q161 0 249 -93.5t88 -265.5t-88 -264.5t-249 -92.5q-158 0 -244.5 93zM526.5 174q47.5 59 47.5 170q0 112 -47.5 171.5t-137.5 59.5q-87 0 -133 -59.5t-46 -171.5q0 -111 46 -170t133 -59q90 0 137.5 59z" unicode="O" glyph-name="O"/>
<glyph horiz-adv-x="638" d="M96 690h236q124 0 192.5 -60.5t68.5 -169.5q0 -110 -68.5 -171t-192.5 -61h-88v-228h-148v690zM329 350q53 0 82.5 28.5t29.5 80.5t-29.5 80.5t-82.5 28.5h-85v-218h85z" unicode="P" glyph-name="P"/>
<glyph horiz-adv-x="785" d="M684 143q-43 -82 -124 -121l120 -25l-23 -107l-232 98q-11 -1 -35 -1q-158 0 -244.5 93t-86.5 264q0 172 86.5 265.5t244.5 93.5q161 0 249 -93.5t88 -265.5q0 -119 -43 -201zM526 174.5q48 59.5 48 169.5q0 111 -48 171t-137 60q-86 0 -132.5 -60t-46.5 -171 q0 -110 46.5 -169.5t132.5 -59.5q89 0 137 59.5z" unicode="Q" glyph-name="Q"/>
<glyph horiz-adv-x="656" d="M469 0l-133 229h-4h-88v-229h-148v690h236q124 0 192.5 -60.5t68.5 -169.5q0 -76 -33.5 -129t-96.5 -79l167 -252h-161zM244 350h85q53 0 82.5 29t29.5 81q0 51 -29.5 79.5t-82.5 28.5h-85v-218z" unicode="R" glyph-name="R"/>
<glyph horiz-adv-x="583" d="M153.5 0q-67.5 13 -108.5 35l34 125q41 -23 92 -37t106 -14q50 0 80 20t30 56q0 26 -16.5 45t-40.5 32.5t-69 33.5q-62 29 -103 54t-70 65.5t-29 97.5q0 60 32.5 103t88 65t124.5 22q55 0 116 -12.5t96 -31.5l-35 -122q-34 19 -84 31.5t-88 12.5q-46 0 -72 -18t-26 -51 q0 -35 31 -58t95 -53q64 -29 103.5 -52.5t68.5 -64t29 -99.5q0 -90 -68.5 -144t-187.5 -54q-61 0 -128.5 13z" unicode="S" glyph-name="S"/>
<glyph horiz-adv-x="595" d="M223 568h-193v122h535v-122h-194v-568h-148v568z" unicode="T" glyph-name="T"/>
<glyph horiz-adv-x="746" d="M162.5 61q-73.5 74 -73.5 211v418h148v-424q0 -72 35.5 -111.5t100.5 -39.5t100 39.5t35 111.5v424h148v-418q0 -137 -73.5 -211t-209.5 -74q-137 0 -210.5 74z" unicode="U" glyph-name="U"/>
<glyph horiz-adv-x="688" d="M19 690h156l169 -525h8l168 525h149l-240 -690h-178z" unicode="V" glyph-name="V"/>
<glyph horiz-adv-x="996" d="M19 690h162l119 -485h8l132 485h149l125 -485h8l115 485h140l-187 -690h-161l-125 476h-8l-131 -476h-159z" unicode="W" glyph-name="W"/>
<glyph horiz-adv-x="694" d="M666 0h-167l-158 255h-8l-155 -255h-150l225 354l-215 336h170l136 -225h8l138 225h147l-208 -323z" unicode="X" glyph-name="X"/>
<glyph horiz-adv-x="682" d="M267 261l-248 429h166l155 -289h8l159 289h156l-248 -429v-261h-148v261z" unicode="Y" glyph-name="Y"/>
<glyph horiz-adv-x="628" d="M581 122v-122h-523v117l340 451h-326v122h499v-111l-343 -457h353z" unicode="Z" glyph-name="Z"/>
<glyph horiz-adv-x="410" d="M80 690h286v-80h-164v-636h164v-79h-286v795z" unicode="[" glyph-name="bracketleft"/>
<glyph horiz-adv-x="541" d="M9 690h120l447 -821h-121z" unicode="\" glyph-name="backslash"/>
<glyph horiz-adv-x="410" d="M44 -26h164v636h-164v80h286v-795h-286v79z" unicode="]" glyph-name="bracketright"/>
<glyph horiz-adv-x="483" d="M188 690h107l170 -345h-114l-109 246l-110 -246h-114z" unicode="^" glyph-name="asciicircum"/>
<glyph horiz-adv-x="467" d="M2 -45h463v-60h-463v60z" unicode="_" glyph-name="underscore"/>
<glyph horiz-adv-x="600" d="M22 650l163 29l75 -153h-95z" unicode="`" glyph-name="grave"/>
<glyph horiz-adv-x="499" d="M394.5 448q47.5 -44 47.5 -124v-324h-104l-9 56q-30 -33 -70 -51t-84 -18q-63 0 -100 37t-37 100q0 87 73 133t208 46v35q0 58 -81 58q-72 0 -155 -40l-25 85q43 24 98 37.5t104 13.5q87 0 134.5 -44zM276.5 89q24.5 11 42.5 30v116q-75 0 -115 -23.5t-40 -67.5 q0 -30 17.5 -48t47.5 -18q23 0 47.5 11z" unicode="a" glyph-name="a"/>
<glyph horiz-adv-x="551" d="M462 425.5q50 -66.5 50 -184.5q0 -120 -50.5 -187t-138.5 -67q-94 0 -146 79l-13 -66h-100v730h122v-292q24 27 59 40.5t75 13.5q92 0 142 -66.5zM357.5 129q27.5 39 27.5 111q0 71 -27.5 110t-77.5 39q-27 0 -52 -11.5t-42 -32.5v-211q18 -21 42.5 -32.5t51.5 -11.5 q50 0 77.5 39z" unicode="b" glyph-name="b"/>
<glyph horiz-adv-x="461" d="M99.5 53q-59.5 66 -59.5 187t59.5 186.5t169.5 65.5q51 0 91 -13t65 -37l-30 -96q-48 43 -110 43q-59 0 -90.5 -38t-31.5 -111t30.5 -111.5t87.5 -38.5q62 0 122 52l28 -99q-28 -27 -69.5 -41.5t-92.5 -14.5q-110 0 -169.5 66z" unicode="c" glyph-name="c"/>
<glyph horiz-adv-x="551" d="M486 730v-730h-100l-12 64q-51 -77 -146 -77q-89 0 -138.5 66.5t-49.5 186.5q0 119 49.5 185.5t141.5 66.5q40 0 74.5 -13t58.5 -38v289h122zM323 101q24 11 41 31v215q-17 20 -41.5 31t-51.5 11q-50 0 -77.5 -39t-27.5 -110q0 -73 28.5 -111.5t78.5 -38.5q26 0 50 11z " unicode="d" glyph-name="d"/>
<glyph horiz-adv-x="512" d="M99.5 53q-59.5 66 -59.5 187q0 120 59.5 186t167.5 66q101 0 153.5 -59.5t52.5 -171.5q0 -25 -3 -48h-304q0 -60 33.5 -91.5t95.5 -31.5q43 0 82.5 12t70.5 35l13 -95q-34 -27 -83.5 -41t-108.5 -14q-110 0 -169.5 66zM346 285q0 50 -21.5 77t-62.5 27q-45 0 -69 -27.5 t-27 -76.5h180z" unicode="e" glyph-name="e"/>
<glyph horiz-adv-x="348" d="M221 479h93v-101h-93v-378h-122v378h-72l24 101h48v120q0 69 39 106.5t111 37.5q38 0 74 -17l10 -96q-33 15 -63 15q-23 0 -36 -13.5t-13 -38.5v-114z" unicode="f" glyph-name="f"/>
<glyph horiz-adv-x="511" d="M491 -41q0 -78 -64.5 -118.5t-187.5 -40.5q-110 0 -169 34t-59 99q0 44 24.5 72.5t68.5 47.5q-34 15 -34 58q0 23 17 41.5t47 28.5q-41 20 -62.5 56.5t-21.5 86.5q0 80 52.5 124t147.5 44q90 0 142 -40l83 41l21 -81l-60 -16q14 -33 14 -72q0 -79 -52.5 -123t-147.5 -44 h-18v0q-28 0 -42 -6.5t-14 -18.5q0 -14 24 -20t89 -9q202 -11 202 -144zM188 391.5q-22 -23.5 -22 -65.5t22.5 -65.5t63.5 -23.5q40 0 63 23.5t23 65.5t-22.5 65.5t-63.5 23.5q-42 0 -64 -23.5zM340.5 -94.5q28.5 14.5 28.5 40.5q0 25 -25 35t-83 19q-48 8 -81 16 q-32 -5 -49 -20t-17 -36q0 -33 39.5 -51t107.5 -18q51 0 79.5 14.5z" unicode="g" glyph-name="g"/>
<glyph horiz-adv-x="529" d="M435.5 457q36.5 -35 36.5 -94v-363h-123v316q0 31 -18 49t-48 18q-24 0 -50 -14t-46 -38l-1 4v-335h-122v730h122v-306q68 68 152 68q61 0 97.5 -35z" unicode="h" glyph-name="h"/>
<glyph horiz-adv-x="251" d="M64 479h122v-479h-122v479zM57 601q0 65 69 65q33 0 50.5 -16.5t17.5 -48.5q0 -66 -68 -66q-69 0 -69 66z" unicode="i" glyph-name="i"/>
<glyph horiz-adv-x="254" d="M-5 -194l-16 101q13 -4 36 -4q25 0 38.5 13t13.5 37v526h122v-526q0 -75 -39 -114t-115 -39q-23 0 -40 6zM60 601q0 65 69 65q33 0 50.5 -16.5t17.5 -48.5q0 -66 -68 -66q-69 0 -69 66z" unicode="j" glyph-name="j"/>
<glyph horiz-adv-x="506" d="M492 0h-144l-154 219h-8v-219h-122v730h122v-429h8l144 178h147l-180 -218z" unicode="k" glyph-name="k"/>
<glyph horiz-adv-x="251" d="M64 730h122v-730h-122v730z" unicode="l" glyph-name="l"/>
<glyph horiz-adv-x="814" d="M721 457q36 -35 36 -94v-363h-122v316q0 31 -18 49t-48 18q-24 0 -50 -14t-47 -39v-330h-122v316q0 31 -18 49t-48 18q-24 0 -50 -14t-47 -38l-3 16l2 -16v-331h-122v479h100l10 -68q73 81 164 81q48 0 81.5 -22t45.5 -61q22 37 66.5 60t91.5 23q62 0 98 -35z" unicode="m" glyph-name="m"/>
<glyph horiz-adv-x="529" d="M435.5 457q36.5 -35 36.5 -94v-363h-122v316q0 31 -18 49t-48 18q-24 0 -50 -14t-47 -38l-3 16l2 -16v-331h-122v479h100l10 -68q73 81 164 81q61 0 97.5 -35z" unicode="n" glyph-name="n"/>
<glyph horiz-adv-x="542" d="M100 52.5q-60 65.5 -60 187.5q0 121 60 186.5t171 65.5q112 0 172 -65.5t60 -186.5q0 -122 -60 -187.5t-172 -65.5q-111 0 -171 65.5zM352 128.5q28 38.5 28 111.5t-28 111t-81 38t-80.5 -38t-27.5 -111t27.5 -111.5t80.5 -38.5t81 38.5z" unicode="o" glyph-name="o"/>
<glyph horiz-adv-x="551" d="M417.5 462q43.5 -30 68.5 -86.5t25 -134.5q0 -120 -50 -187t-138 -67q-86 0 -137 65v-252h-122v679h100l10 -53q25 33 63.5 49.5t82.5 16.5q54 0 97.5 -30zM357.5 129q27.5 39 27.5 111q0 71 -27.5 110t-77.5 39q-27 0 -52 -11.5t-42 -32.5v-211q17 -21 41.5 -32.5 t51.5 -11.5q51 0 78.5 39z" unicode="p" glyph-name="p"/>
<glyph horiz-adv-x="551" d="M486 479v-679h-122v251q-51 -64 -136 -64q-89 0 -138.5 66.5t-49.5 186.5q0 119 49.5 185.5t141.5 66.5q45 0 83 -16t62 -50l10 53h100zM323 101q24 11 41 31v215q-17 20 -41.5 31t-51.5 11q-50 0 -77.5 -39t-27.5 -110q0 -73 28.5 -111.5t78.5 -38.5q26 0 50 11z" unicode="q" glyph-name="q"/>
<glyph horiz-adv-x="361" d="M257 373.5q-41 -14.5 -70 -40.5l-1 5v-338h-122v479h100l12 -66q34 37 74 58t80 21l11 -103q-43 -1 -84 -15.5z" unicode="r" glyph-name="r"/>
<glyph horiz-adv-x="453" d="M122 -0.5q-50 12.5 -81 34.5l9 106q34 -22 90 -38t97 -16q33 0 52 12.5t19 36.5t-25 38t-77 29q-74 22 -117.5 53t-43.5 93q0 72 48 108t126 36q41 0 88.5 -9.5t90.5 -26.5l-8 -99q-35 16 -81 28.5t-77 12.5q-29 0 -47 -11.5t-18 -32.5q0 -15 11.5 -25t26.5 -15t53 -16 q74 -22 119 -55t45 -99q0 -77 -54.5 -117t-144.5 -40q-51 0 -101 12.5z" unicode="s" glyph-name="s"/>
<glyph horiz-adv-x="350" d="M334 13q-47 -22 -91 -22q-72 0 -111 37.5t-39 105.5v243h-72l24 102h48v166h122v-166h93v-102h-93v-236q0 -25 12.5 -38.5t36.5 -13.5q26 0 43 8z" unicode="t" glyph-name="t"/>
<glyph horiz-adv-x="532" d="M467 479v-479h-100l-10 67q-72 -80 -163 -80q-61 0 -97.5 35t-36.5 94v363h122v-315q0 -31 18.5 -49.5t47.5 -18.5q25 0 51 14t46 39v330h122z" unicode="u" glyph-name="u"/>
<glyph horiz-adv-x="504" d="M490 479l-172 -479h-136l-168 479h136l111 -339l103 339h126z" unicode="v" glyph-name="v"/>
<glyph horiz-adv-x="731" d="M717 479l-143 -479h-130l-80 309l-82 -309h-135l-133 479h133l80 -330l89 330h115l84 -331l80 331h122z" unicode="w" glyph-name="w"/>
<glyph horiz-adv-x="499" d="M342 0l-97 158l-100 -158h-125l157 240l-155 239h141l90 -148l94 148h120l-149 -222l162 -257h-138z" unicode="x" glyph-name="x"/>
<glyph horiz-adv-x="504" d="M490 479l-176 -492q-33 -93 -78.5 -140t-114.5 -47q-28 0 -56 6l-16 101q13 -4 34 -4q37 0 64.5 18t41.5 70l-175 488h137l110 -339l103 339h126z" unicode="y" glyph-name="y"/>
<glyph horiz-adv-x="468" d="M41 104l242 273h-234v102h379v-101l-242 -276h248v-102h-393v104z" unicode="z" glyph-name="z"/>
<glyph horiz-adv-x="445" d="M161.5 -69.5q-39.5 35.5 -39.5 101.5q0 16 4 60q4 46 4 64q0 48 -18.5 73t-53.5 25h-28v77h28q35 0 53.5 25.5t18.5 73.5q0 18 -4 62q-4 46 -4 61q0 66 39.5 101.5t109.5 35.5h135v-78h-72q-80 0 -80 -76q0 -11 1 -24t2 -25q4 -44 4 -61q0 -105 -98 -132v-2 q98 -31 98 -134q0 -16 -4 -60l-2 -26t-1 -24q0 -74 80 -74h72v-79h-135q-70 0 -109.5 35.5z" unicode="{" glyph-name="braceleft"/>
<glyph horiz-adv-x="316" d="M104 770h109v-951h-109v951z" unicode="|" glyph-name="bar"/>
<glyph horiz-adv-x="445" d="M40 -26h72q79 0 79 74q0 20 -3 50q-1 13 -2 28.5t-1 31.5q0 103 98 134v2q-98 27 -98 132q0 17 1 33t2 28q3 29 3 49q0 76 -79 76h-72v78h135q69 0 108.5 -35.5t39.5 -101.5q0 -16 -1 -32t-2 -29q-4 -44 -4 -62q0 -48 18.5 -73.5t52.5 -25.5h29v-77h-29q-35 0 -53 -25 t-18 -73q0 -18 4 -64q1 -13 2 -28.5t1 -31.5q0 -66 -39.5 -101.5t-108.5 -35.5h-135v79z" unicode="}" glyph-name="braceright"/>
<glyph horiz-adv-x="531" d="M306 222.5q-20 5.5 -46 16.5l-22.5 7.5t-29.5 8.5t-24 3q-45 0 -82 -36l-45 58q27 39 61.5 60t69.5 21q18 0 37 -5.5t45 -16.5q7 -2 23.5 -8t30.5 -9t25 -3q39 0 81 34l44 -58q-28 -37 -61 -57.5t-67 -20.5q-20 0 -40 5.5z" unicode="~" glyph-name="asciitilde"/>
<glyph horiz-adv-x="295" d="M66 431q0 40 21 60.5t61 20.5t60.5 -20.5t20.5 -60.5t-20.5 -61t-60.5 -21q-82 0 -82 82zM106 280h83l37 -480h-158z" unicode="¡" glyph-name="exclamdown"/>
<glyph horiz-adv-x="461" d="M314 97l9 -97h-111l9 98q-87 14 -134 78t-47 171q0 106 47 170t134 78l-9 95h111l-9 -94q73 -9 111 -47l-30 -96q-48 43 -110 43q-59 0 -90.5 -38t-31.5 -111t30.5 -111.5t87.5 -38.5q64 0 122 52l28 -99q-44 -42 -117 -53z" unicode="¢" glyph-name="cent"/>
<glyph horiz-adv-x="567" d="M206 107h298v-107h-449v84q71 101 84 206h-84v108h82q-8 56 -8 95q0 103 62 156.5t181 53.5q69 0 136 -26l-16 -113q-60 21 -110 21q-59 0 -90.5 -27.5t-31.5 -80.5q0 -10 2 -44l1 -35h201l-16 -108h-188q-11 -111 -54 -183z" unicode="£" glyph-name="sterling"/>
<glyph horiz-adv-x="523" d="M410 228l82 -66l-70 -69l-66 82q-37 -21 -95 -21q-55 0 -95 20l-65 -81l-70 69l81 65q-21 39 -21 96t21 96l-81 65l70 70l66 -82q38 20 94 20q55 0 95 -20l66 82l70 -70l-82 -66q21 -37 21 -95q0 -57 -21 -95zM321.5 259q20.5 22 20.5 64q0 43 -20.5 65t-60.5 22 t-60.5 -22t-20.5 -65q0 -42 20.5 -64t60.5 -22t60.5 22z" unicode="¤" glyph-name="currency"/>
<glyph horiz-adv-x="676" d="M427 293h139v-61h-157v-72h157v-61h-157v-99h-142v99h-158v61h158v72h-158v61h140l-230 397h160l155 -289h8l159 289h156z" unicode="¥" glyph-name="yen"/>
<glyph horiz-adv-x="318" d="M104 770h109v-375h-109v375zM104 200h109v-381h-109v381z" unicode="¦" glyph-name="brokenbar"/>
<glyph horiz-adv-x="535" d="M92 12l19 101q27 -14 63.5 -22.5t68.5 -8.5q40 0 66.5 13t26.5 37t-28 37.5t-88 28.5q-57 15 -92 29.5t-60.5 42.5t-25.5 73q0 43 17.5 71t52.5 59q-34 36 -34 85q0 68 56.5 106.5t146.5 38.5q76 0 150 -22l-18 -100q-26 12 -59 20t-62 8q-39 0 -65.5 -13t-26.5 -37 t32.5 -38.5t85.5 -27.5q56 -16 91 -30.5t59.5 -42.5t24.5 -73q0 -36 -15 -67t-53 -64q16 -14 25 -35.5t9 -48.5q0 -70 -58.5 -107.5t-163.5 -37.5q-67 0 -145 25zM378.5 292q8.5 16 8.5 32q0 31 -30 45t-92 28q-32 8 -52.5 14t-35.5 15q-16 -16 -23.5 -29.5t-7.5 -29.5 q0 -21 14.5 -33.5t33.5 -19.5t66 -20l25 -6q6 -2 30 -8.5t42 -14.5q13 11 21.5 27z" unicode="§" glyph-name="section"/>
<glyph horiz-adv-x="600" d="M70 601q0 65 69 65q33 0 50.5 -16.5t17.5 -48.5q0 -66 -68 -66q-69 0 -69 66zM267 601q0 65 69 65q33 0 50.5 -16.5t17.5 -48.5q0 -66 -68 -66q-69 0 -69 66z" unicode="¨" glyph-name="dieresis"/>
<glyph horiz-adv-x="818" d="M135.5 80q-93.5 93 -93.5 265t93.5 265t266.5 93q172 0 265.5 -93t93.5 -265t-93.5 -265t-265.5 -93q-173 0 -266.5 93zM628.5 113q78.5 80 78.5 232t-78.5 232t-226.5 80t-226.5 -80t-78.5 -232t79 -232t227 -80q147 0 225.5 80zM272.5 197q-50.5 52 -50.5 151 q0 100 50 151.5t147 51.5q61 0 119 -28l-13 -84q-53 33 -100 33q-50 0 -76 -31.5t-26 -91.5q0 -61 27.5 -93t80.5 -32q45 0 102 33l12 -78q-59 -34 -126 -34q-96 0 -146.5 52z" unicode="©" glyph-name="copyright"/>
<glyph horiz-adv-x="406" d="M80.5 393.5q-23.5 22.5 -23.5 64.5q0 107 193 118v14q0 23 -15.5 35.5t-44.5 12.5q-46 0 -97 -24l-19 60q58 29 135 29q63 0 96 -27.5t33 -79.5v-217h-77l-7 39q-55 -47 -106 -47q-44 0 -67.5 22.5zM251 461v73q-53 -4 -80.5 -20t-27.5 -44q0 -38 39 -38q35 0 69 29z M61 312h277v-62h-277v62z" unicode="ª" glyph-name="ordfeminine"/>
<glyph horiz-adv-x="561" d="M27 239l156 240h107l-120 -240l120 -239h-107zM259 239l152 240h111l-120 -240l120 -239h-111z" unicode="«" glyph-name="guillemotleft"/>
<glyph horiz-adv-x="570" d="M428 293h-371v104h456v-261h-85v157z" unicode="¬" glyph-name="logicalnot"/>
<glyph horiz-adv-x="361" d="M47 363h268v-122h-268v122z" unicode="­" glyph-name="uni00AD"/>
<glyph horiz-adv-x="567" d="M111.5 288q-60.5 62 -60.5 177t60.5 176.5t172.5 61.5t172.5 -61.5t60.5 -176.5t-60.5 -177t-172.5 -62t-172.5 62zM425.5 317q48.5 51 48.5 148t-48.5 147.5t-141.5 50.5q-92 0 -140.5 -50.5t-48.5 -147.5t48.5 -148t140.5 -51q93 0 141.5 51zM280 436h-22v-92h-62v257 h90q47 0 73 -21t26 -59q0 -23 -13 -41.5t-36 -29.5l66 -106h-70zM279 477q22 0 34 10.5t12 29.5t-11.5 29t-33.5 10h-22v-79h21z" unicode="®" glyph-name="registered"/>
<glyph horiz-adv-x="600" d="M103 633h258v-95h-258v95z" unicode="¯" glyph-name="macron"/>
<glyph horiz-adv-x="445" d="M100 411.5q-47 46.5 -47 122.5t46.5 122.5t123.5 46.5t123.5 -46.5t46.5 -122.5t-47 -122.5t-123 -46.5t-123 46.5zM289.5 463q25.5 27 25.5 71t-25.5 71.5t-67.5 27.5t-67.5 -27.5t-25.5 -71.5t26 -71t68 -27q41 0 66.5 27z" unicode="°" glyph-name="degree"/>
<glyph horiz-adv-x="570" d="M513 380v-105h-173v-121h-108v121h-175v105h175v124h108v-124h173zM57 104h456v-104h-456v104z" unicode="±" glyph-name="plusminus"/>
<glyph horiz-adv-x="376" d="M46 395q64 53 111.5 108t47.5 89q0 18 -13 28.5t-35 10.5q-40 0 -92 -35l-13 70q50 37 119 37q59 0 91 -26.5t32 -73.5q0 -52 -36 -101t-98 -101h143v-71h-242z" unicode="²" glyph-name="uni00B2"/>
<glyph horiz-adv-x="366" d="M34 342l10 73q53 -25 94 -25q34 0 51.5 12t17.5 34q0 23 -20.5 35.5t-58.5 12.5h-25l-4 62h31q34 0 51.5 12t17.5 34q0 19 -14 29t-42 10q-45 0 -92 -28l-11 68q46 32 118 32q65 0 98.5 -24.5t33.5 -72.5q0 -31 -16.5 -53t-48.5 -34q71 -25 71 -92q0 -54 -36.5 -82 t-106.5 -28q-63 0 -119 25z" unicode="³" glyph-name="uni00B3"/>
<glyph horiz-adv-x="600" d="M185 679l143 -24l-136 -129h-89z" unicode="´" glyph-name="acute"/>
<glyph horiz-adv-x="557" d="M79 479h122v-315q0 -33 18 -50.5t48 -17.5q26 0 52 13.5t45 39.5v330h122v-479h-100l-10 72q-20 -41 -55 -63t-77 -22q-56 0 -84 45l23 -232h-104v679z" unicode="µ" glyph-name="uni00B5"/>
<glyph horiz-adv-x="546" d="M235 271q-95 12 -145.5 66.5t-50.5 145.5q0 99 62.5 153t178.5 54h183v-690h-75v632h-78v-632h-75v271z" unicode="¶" glyph-name="paragraph"/>
<glyph horiz-adv-x="268" d="M53 290q0 40 21 61t61 21t60.5 -21t20.5 -61t-20.5 -61t-60.5 -21q-82 0 -82 82z" unicode="·" glyph-name="periodcentered"/>
<glyph horiz-adv-x="600" d="M69 -183l20 40q21 -9 40 -9q22 0 35.5 9t13.5 24q0 11 -8.5 17.5t-23.5 6.5t-31 -6l-17 17l29 88l64 -4l-28 -57q5 2 20 2q31 0 48.5 -14.5t17.5 -43.5q0 -39 -31 -63t-78 -24q-37 0 -71 17z" unicode="¸" glyph-name="cedilla"/>
<glyph horiz-adv-x="307" d="M105 614l-74 -31l-9 70l92 45h77v-368h-86v284z" unicode="¹" glyph-name="uni00B9"/>
<glyph horiz-adv-x="406" d="M86 403.5q-40 44.5 -40 128.5q0 83 40 127t117 44t117.5 -44t40.5 -127q0 -84 -40.5 -128.5t-117.5 -44.5t-117 44.5zM255 455.5q18 26.5 18 76.5q0 49 -18 75t-52 26t-52 -26t-18 -75q0 -50 18 -76.5t52 -26.5t52 26.5zM55 312h296v-62h-296v62z" unicode="º" glyph-name="ordmasculine"/>
<glyph horiz-adv-x="561" d="M160 239l-120 240h111l152 -240l-152 -239h-111zM392 239l-120 240h107l156 -240l-156 -239h-107z" unicode="»" glyph-name="guillemotright"/>
<glyph horiz-adv-x="765" d="M132 614l-74 -31l-9 70l92 45h77v-372h-86v288zM534 690h84l-398 -690h-83zM592 69h-175v56l158 243h103v-238h51v-61h-51v-69h-86v69zM592 130v151l-98 -151h98z" unicode="¼" glyph-name="onequarter"/>
<glyph horiz-adv-x="802" d="M132 614l-74 -31l-9 70l92 45h77v-372h-86v288zM528 690h84l-398 -690h-83zM481 65q64 53 111.5 108t47.5 89q0 18 -13 28.5t-35 10.5q-40 0 -92 -35l-13 70q50 37 119 37q59 0 91 -26.5t32 -73.5q0 -52 -36 -101t-98 -101h143v-71h-242z" unicode="½" glyph-name="onehalf"/>
<glyph horiz-adv-x="796" d="M51 342l10 74q52 -26 94 -26q34 0 51.5 12t17.5 34q0 24 -20.5 36.5t-58.5 12.5h-25l-4 61h31q34 0 51.5 12t17.5 34q0 19 -14 29t-42 10q-45 0 -92 -28l-11 68q46 32 118 32q65 0 98.5 -24.5t33.5 -72.5q0 -31 -16.5 -53t-48.5 -34q71 -25 71 -92q0 -53 -36.5 -81.5 t-106.5 -28.5q-63 0 -119 25zM565 690h84l-398 -690h-83zM623 69h-175v56l158 243h103v-238h51v-61h-51v-69h-86v69zM623 130v151l-98 -151h98z" unicode="¾" glyph-name="threequarters"/>
<glyph horiz-adv-x="460" d="M334 491.5q21 -20.5 21 -60.5q0 -82 -82 -82q-40 0 -60.5 21t-20.5 61t20.5 60.5t60.5 20.5t61 -20.5zM324 130q-86 -31 -126.5 -61.5t-40.5 -75.5q0 -37 25.5 -57.5t72.5 -20.5q43 0 92.5 17t90.5 47l18 -116q-49 -32 -106.5 -49.5t-113.5 -17.5q-65 0 -113.5 23.5 t-74.5 65.5t-26 96q0 75 52 126.5t153 84.5l5 91h83z" unicode="¿" glyph-name="questiondown"/>
<glyph horiz-adv-x="725" d="M492 148h-270l-48 -148h-155l246 690h195l246 -690h-166zM456 258l-95 292h-8l-95 -292h198zM201 861l163 29l75 -153h-95z" unicode="À" glyph-name="Agrave"/>
<glyph horiz-adv-x="725" d="M492 148h-270l-48 -148h-155l246 690h195l246 -690h-166zM456 258l-95 292h-8l-95 -292h198zM370 890l143 -24l-136 -129h-89z" unicode="Á" glyph-name="Aacute"/>
<glyph horiz-adv-x="725" d="M492 148h-270l-48 -148h-155l246 690h195l246 -690h-166zM456 258l-95 292h-8l-95 -292h198zM309 890h104l101 -153h-86l-67 77l-68 -77h-85z" unicode="Â" glyph-name="Acircumflex"/>
<glyph horiz-adv-x="725" d="M492 148h-270l-48 -148h-155l246 690h195l246 -690h-166zM456 258l-95 292h-8l-95 -292h198zM200 743q0 64 23.5 95t60.5 31q19 0 39 -6t47 -17q42 -17 56 -17t26 12.5t16 32.5l55 -9q-2 -57 -26.5 -92t-63.5 -35q-16 0 -32.5 5.5t-41.5 15.5q-16 7 -31.5 12.5t-26.5 5.5 q-14 0 -25 -12.5t-15 -33.5z" unicode="Ã" glyph-name="Atilde"/>
<glyph horiz-adv-x="725" d="M492 148h-270l-48 -148h-155l246 690h195l246 -690h-166zM456 258l-95 292h-8l-95 -292h198zM193 812q0 65 69 65q33 0 50.5 -16.5t17.5 -48.5q0 -66 -68 -66q-69 0 -69 66zM390 812q0 65 69 65q33 0 50.5 -16.5t17.5 -48.5q0 -66 -68 -66q-69 0 -69 66z" unicode="Ä" glyph-name="Adieresis"/>
<glyph horiz-adv-x="725" d="M492 148h-270l-48 -148h-155l246 690h195l246 -690h-166zM456 258l-95 292h-8l-95 -292h198zM274.5 749q-31.5 28 -31.5 78q0 48 31.5 75.5t86.5 27.5t86 -27.5t31 -75.5q0 -50 -31 -78t-86 -28t-86.5 28zM395.5 791.5q12.5 12.5 12.5 35.5q0 22 -12.5 33.5t-35.5 11.5 t-35 -11.5t-12 -33.5q0 -23 12 -35.5t35 -12.5t35.5 12.5z" unicode="Å" glyph-name="Aring"/>
<glyph horiz-adv-x="975" d="M904 122v-122h-435v148h-220l-78 -148h-152l384 690h85h409v-122h-280v-160h240v-121h-240v-165h287zM469 258v292h-8l-154 -292h162z" unicode="Æ" glyph-name="AE"/>
<glyph horiz-adv-x="631" d="M448.5 -69.5q17.5 -14.5 17.5 -43.5q0 -39 -31 -63t-78 -24q-37 0 -71 17l20 40q21 -9 40 -9q22 0 35.5 9t13.5 24q0 11 -8.5 17.5t-23.5 6.5q-14 0 -31 -6l-17 17l24 73q-135 14 -207.5 105.5t-72.5 248.5q0 173 86 266.5t243 93.5q61 0 113 -14t88 -40l-49 -113 q-72 39 -146 39q-90 0 -136.5 -59.5t-46.5 -173.5q0 -227 185 -227q81 0 153 44l48 -115q-40 -25 -90.5 -40t-104.5 -17l-22 -44q5 2 20 2q31 0 48.5 -14.5z" unicode="Ç" glyph-name="Ccedilla"/>
<glyph horiz-adv-x="603" d="M531 122v-122h-435v690h428v-122h-280v-160h241v-121h-241v-165h287zM151 861l163 29l75 -153h-95z" unicode="È" glyph-name="Egrave"/>
<glyph horiz-adv-x="603" d="M531 122v-122h-435v690h428v-122h-280v-160h241v-121h-241v-165h287zM320 890l143 -24l-136 -129h-89z" unicode="É" glyph-name="Eacute"/>
<glyph horiz-adv-x="603" d="M531 122v-122h-435v690h428v-122h-280v-160h241v-121h-241v-165h287zM259 890h104l101 -153h-86l-67 77l-68 -77h-85z" unicode="Ê" glyph-name="Ecircumflex"/>
<glyph horiz-adv-x="603" d="M531 122v-122h-435v690h428v-122h-280v-160h241v-121h-241v-165h287zM143 812q0 65 69 65q33 0 50.5 -16.5t17.5 -48.5q0 -66 -68 -66q-69 0 -69 66zM340 812q0 65 69 65q33 0 50.5 -16.5t17.5 -48.5q0 -66 -68 -66q-69 0 -69 66z" unicode="Ë" glyph-name="Edieresis"/>
<glyph horiz-adv-x="341" d="M96 690h148v-690h-148v690zM10 861l163 29l75 -153h-95z" unicode="Ì" glyph-name="Igrave"/>
<glyph horiz-adv-x="341" d="M96 690h148v-690h-148v690zM179 890l143 -24l-136 -129h-89z" unicode="Í" glyph-name="Iacute"/>
<glyph horiz-adv-x="341" d="M96 690h148v-690h-148v690zM118 890h104l101 -153h-86l-67 77l-68 -77h-85z" unicode="Î" glyph-name="Icircumflex"/>
<glyph horiz-adv-x="341" d="M96 690h148v-690h-148v690zM2 812q0 65 69 65q33 0 50.5 -16.5t17.5 -48.5q0 -66 -68 -66q-69 0 -69 66zM199 812q0 65 69 65q33 0 50.5 -16.5t17.5 -48.5q0 -66 -68 -66q-69 0 -69 66z" unicode="Ï" glyph-name="Idieresis"/>
<glyph horiz-adv-x="744" d="M598.5 600.5q86.5 -89.5 86.5 -255.5t-86.5 -255.5t-246.5 -89.5h-256v297h-79v102h79v291h256q160 0 246.5 -89.5zM482 180q51 58 51 165t-51 165t-145 58h-93v-169h135v-102h-135v-175h93q94 0 145 58z" unicode="Ð" glyph-name="Eth"/>
<glyph horiz-adv-x="764" d="M96 690h156l259 -432h8v432h148v-690h-143l-272 450h-8v-450h-148v690zM221 743q0 64 23.5 95t60.5 31q19 0 39 -6t47 -17q42 -17 56 -17t26 12.5t16 32.5l55 -9q-2 -57 -26.5 -92t-63.5 -35q-16 0 -32.5 5.5t-41.5 15.5q-16 7 -31.5 12.5t-26.5 5.5q-14 0 -25 -12.5 t-15 -33.5z" unicode="Ñ" glyph-name="Ntilde"/>
<glyph horiz-adv-x="785" d="M145.5 80q-86.5 93 -86.5 264q0 172 86.5 265.5t244.5 93.5q161 0 249 -93.5t88 -265.5t-88 -264.5t-249 -92.5q-158 0 -244.5 93zM526.5 174q47.5 59 47.5 170q0 112 -47.5 171.5t-137.5 59.5q-87 0 -133 -59.5t-46 -171.5q0 -111 46 -170t133 -59q90 0 137.5 59z M233 861l163 29l75 -153h-95z" unicode="Ò" glyph-name="Ograve"/>
<glyph horiz-adv-x="785" d="M145.5 80q-86.5 93 -86.5 264q0 172 86.5 265.5t244.5 93.5q161 0 249 -93.5t88 -265.5t-88 -264.5t-249 -92.5q-158 0 -244.5 93zM526.5 174q47.5 59 47.5 170q0 112 -47.5 171.5t-137.5 59.5q-87 0 -133 -59.5t-46 -171.5q0 -111 46 -170t133 -59q90 0 137.5 59z M402 890l143 -24l-136 -129h-89z" unicode="Ó" glyph-name="Oacute"/>
<glyph horiz-adv-x="785" d="M145.5 80q-86.5 93 -86.5 264q0 172 86.5 265.5t244.5 93.5q161 0 249 -93.5t88 -265.5t-88 -264.5t-249 -92.5q-158 0 -244.5 93zM526.5 174q47.5 59 47.5 170q0 112 -47.5 171.5t-137.5 59.5q-87 0 -133 -59.5t-46 -171.5q0 -111 46 -170t133 -59q90 0 137.5 59z M341 890h104l101 -153h-86l-67 77l-68 -77h-85z" unicode="Ô" glyph-name="Ocircumflex"/>
<glyph horiz-adv-x="785" d="M145.5 80q-86.5 93 -86.5 264q0 172 86.5 265.5t244.5 93.5q161 0 249 -93.5t88 -265.5t-88 -264.5t-249 -92.5q-158 0 -244.5 93zM526.5 174q47.5 59 47.5 170q0 112 -47.5 171.5t-137.5 59.5q-87 0 -133 -59.5t-46 -171.5q0 -111 46 -170t133 -59q90 0 137.5 59z M232 743q0 64 23.5 95t60.5 31q19 0 39 -6t47 -17q42 -17 56 -17t26 12.5t16 32.5l55 -9q-2 -57 -26.5 -92t-63.5 -35q-16 0 -32.5 5.5t-41.5 15.5q-16 7 -31.5 12.5t-26.5 5.5q-14 0 -25 -12.5t-15 -33.5z" unicode="Õ" glyph-name="Otilde"/>
<glyph horiz-adv-x="785" d="M145.5 80q-86.5 93 -86.5 264q0 172 86.5 265.5t244.5 93.5q161 0 249 -93.5t88 -265.5t-88 -264.5t-249 -92.5q-158 0 -244.5 93zM526.5 174q47.5 59 47.5 170q0 112 -47.5 171.5t-137.5 59.5q-87 0 -133 -59.5t-46 -171.5q0 -111 46 -170t133 -59q90 0 137.5 59z M225 812q0 65 69 65q33 0 50.5 -16.5t17.5 -48.5q0 -66 -68 -66q-69 0 -69 66zM422 812q0 65 69 65q33 0 50.5 -16.5t17.5 -48.5q0 -66 -68 -66q-69 0 -69 66z" unicode="Ö" glyph-name="Odieresis"/>
<glyph horiz-adv-x="568" d="M283 216l-145 -146l-70 70l147 145l-148 146l72 72l146 -147l145 146l71 -70l-147 -145l148 -146l-73 -72z" unicode="×" glyph-name="multiply"/>
<glyph horiz-adv-x="785" d="M652 595q75 -92 75 -251q0 -172 -88 -264.5t-249 -92.5q-114 0 -191 48l-28 -35h-110l74 91q-76 93 -76 253q0 172 86.5 265.5t244.5 93.5q120 0 198 -51l31 38h110zM233 213l266 329q-44 33 -110 33q-87 0 -133 -59.5t-46 -171.5q0 -77 23 -131zM552 471l-265 -327 q43 -29 102 -29q90 0 137.5 59t47.5 170q0 77 -22 127z" unicode="Ø" glyph-name="Oslash"/>
<glyph horiz-adv-x="746" d="M162.5 61q-73.5 74 -73.5 211v418h148v-424q0 -72 35.5 -111.5t100.5 -39.5t100 39.5t35 111.5v424h148v-418q0 -137 -73.5 -211t-209.5 -74q-137 0 -210.5 74zM213 861l163 29l75 -153h-95z" unicode="Ù" glyph-name="Ugrave"/>
<glyph horiz-adv-x="746" d="M162.5 61q-73.5 74 -73.5 211v418h148v-424q0 -72 35.5 -111.5t100.5 -39.5t100 39.5t35 111.5v424h148v-418q0 -137 -73.5 -211t-209.5 -74q-137 0 -210.5 74zM382 890l143 -24l-136 -129h-89z" unicode="Ú" glyph-name="Uacute"/>
<glyph horiz-adv-x="746" d="M162.5 61q-73.5 74 -73.5 211v418h148v-424q0 -72 35.5 -111.5t100.5 -39.5t100 39.5t35 111.5v424h148v-418q0 -137 -73.5 -211t-209.5 -74q-137 0 -210.5 74zM321 890h104l101 -153h-86l-67 77l-68 -77h-85z" unicode="Û" glyph-name="Ucircumflex"/>
<glyph horiz-adv-x="746" d="M162.5 61q-73.5 74 -73.5 211v418h148v-424q0 -72 35.5 -111.5t100.5 -39.5t100 39.5t35 111.5v424h148v-418q0 -137 -73.5 -211t-209.5 -74q-137 0 -210.5 74zM205 812q0 65 69 65q33 0 50.5 -16.5t17.5 -48.5q0 -66 -68 -66q-69 0 -69 66zM402 812q0 65 69 65 q33 0 50.5 -16.5t17.5 -48.5q0 -66 -68 -66q-69 0 -69 66z" unicode="Ü" glyph-name="Udieresis"/>
<glyph horiz-adv-x="682" d="M267 261l-248 429h166l155 -289h8l159 289h156l-248 -429v-261h-148v261zM350 890l143 -24l-136 -129h-89z" unicode="Ý" glyph-name="Yacute"/>
<glyph horiz-adv-x="638" d="M524.5 525q68.5 -61 68.5 -170t-68.5 -170t-191.5 -61h-89v-124h-148v690h148v-104h89q123 0 191.5 -61zM411.5 274q29.5 29 29.5 81q0 51 -30 80t-82 29h-85v-219h85q53 0 82.5 29z" unicode="Þ" glyph-name="Thorn"/>
<glyph horiz-adv-x="613" d="M278 6v93q42 -14 80 -14q43 0 65 24t22 68q0 46 -36 79t-104 50l-11 59q68 65 68 135q0 44 -19 66.5t-56 22.5q-34 0 -51.5 -21t-17.5 -62v-506h-122v518q0 91 47.5 138t138.5 47q98 0 149.5 -46.5t51.5 -135.5q0 -72 -68 -151q77 -29 117.5 -80t40.5 -119 q0 -90 -48 -137t-141 -47q-59 0 -106 19z" unicode="ß" glyph-name="germandbls"/>
<glyph horiz-adv-x="499" d="M394.5 448q47.5 -44 47.5 -124v-324h-104l-9 56q-30 -33 -70 -51t-84 -18q-63 0 -100 37t-37 100q0 87 73 133t208 46v35q0 58 -81 58q-72 0 -155 -40l-25 85q43 24 98 37.5t104 13.5q87 0 134.5 -44zM276.5 89q24.5 11 42.5 30v116q-75 0 -115 -23.5t-40 -67.5 q0 -30 17.5 -48t47.5 -18q23 0 47.5 11zM90 650l163 29l75 -153h-95z" unicode="à" glyph-name="agrave"/>
<glyph horiz-adv-x="499" d="M394.5 448q47.5 -44 47.5 -124v-324h-104l-9 56q-30 -33 -70 -51t-84 -18q-63 0 -100 37t-37 100q0 87 73 133t208 46v35q0 58 -81 58q-72 0 -155 -40l-25 85q43 24 98 37.5t104 13.5q87 0 134.5 -44zM276.5 89q24.5 11 42.5 30v116q-75 0 -115 -23.5t-40 -67.5 q0 -30 17.5 -48t47.5 -18q23 0 47.5 11zM259 679l143 -24l-136 -129h-89z" unicode="á" glyph-name="aacute"/>
<glyph horiz-adv-x="499" d="M394.5 448q47.5 -44 47.5 -124v-324h-104l-9 56q-30 -33 -70 -51t-84 -18q-63 0 -100 37t-37 100q0 87 73 133t208 46v35q0 58 -81 58q-72 0 -155 -40l-25 85q43 24 98 37.5t104 13.5q87 0 134.5 -44zM276.5 89q24.5 11 42.5 30v116q-75 0 -115 -23.5t-40 -67.5 q0 -30 17.5 -48t47.5 -18q23 0 47.5 11zM198 679h104l101 -153h-86l-67 77l-68 -77h-85z" unicode="â" glyph-name="acircumflex"/>
<glyph horiz-adv-x="499" d="M394.5 448q47.5 -44 47.5 -124v-324h-104l-9 56q-30 -33 -70 -51t-84 -18q-63 0 -100 37t-37 100q0 87 73 133t208 46v35q0 58 -81 58q-72 0 -155 -40l-25 85q43 24 98 37.5t104 13.5q87 0 134.5 -44zM276.5 89q24.5 11 42.5 30v116q-75 0 -115 -23.5t-40 -67.5 q0 -30 17.5 -48t47.5 -18q23 0 47.5 11zM89 532q0 64 23.5 95t60.5 31q19 0 39 -6t47 -17q42 -17 56 -17t26 12.5t16 32.5l55 -9q-2 -57 -26.5 -92t-63.5 -35q-16 0 -32.5 5.5t-41.5 15.5q-16 7 -31.5 12.5t-26.5 5.5q-14 0 -25 -12.5t-15 -33.5z" unicode="ã" glyph-name="atilde"/>
<glyph horiz-adv-x="499" d="M394.5 448q47.5 -44 47.5 -124v-324h-104l-9 56q-30 -33 -70 -51t-84 -18q-63 0 -100 37t-37 100q0 87 73 133t208 46v35q0 58 -81 58q-72 0 -155 -40l-25 85q43 24 98 37.5t104 13.5q87 0 134.5 -44zM276.5 89q24.5 11 42.5 30v116q-75 0 -115 -23.5t-40 -67.5 q0 -30 17.5 -48t47.5 -18q23 0 47.5 11zM82 601q0 65 69 65q33 0 50.5 -16.5t17.5 -48.5q0 -66 -68 -66q-69 0 -69 66zM279 601q0 65 69 65q33 0 50.5 -16.5t17.5 -48.5q0 -66 -68 -66q-69 0 -69 66z" unicode="ä" glyph-name="adieresis"/>
<glyph horiz-adv-x="499" d="M394.5 448q47.5 -44 47.5 -124v-324h-104l-9 56q-30 -33 -70 -51t-84 -18q-63 0 -100 37t-37 100q0 87 73 133t208 46v35q0 58 -81 58q-72 0 -155 -40l-25 85q43 24 98 37.5t104 13.5q87 0 134.5 -44zM276.5 89q24.5 11 42.5 30v116q-75 0 -115 -23.5t-40 -67.5 q0 -30 17.5 -48t47.5 -18q23 0 47.5 11zM163.5 538q-31.5 28 -31.5 78q0 48 31.5 75.5t86.5 27.5t86 -27.5t31 -75.5q0 -50 -31 -78t-86 -28t-86.5 28zM284.5 580.5q12.5 12.5 12.5 35.5q0 22 -12.5 33.5t-35.5 11.5t-35 -11.5t-12 -33.5q0 -23 12 -35.5t35 -12.5t35.5 12.5 z" unicode="å" glyph-name="aring"/>
<glyph horiz-adv-x="790" d="M78 22q-40 35 -40 102q0 87 73 133t209 46v35q0 28 -20.5 43t-60.5 15q-36 0 -76 -10.5t-79 -29.5l-26 85q44 24 99 37.5t104 13.5q44 0 79 -14t56 -39q55 53 148 53q101 0 153.5 -59.5t52.5 -171.5q0 -28 -4 -48h-303q0 -60 33.5 -91.5t95.5 -31.5q43 0 82.5 12t70.5 35 l13 -95q-34 -27 -83.5 -41t-108.5 -14q-113 0 -172 70q-72 -70 -179 -70q-77 0 -117 35zM624 285q0 50 -21.5 77t-62.5 27q-45 0 -69 -27.5t-27 -76.5h180zM339 115q-20 47 -22 119q-74 0 -113.5 -23.5t-39.5 -66.5q0 -32 19 -49t54 -17q54 0 102 37z" unicode="æ" glyph-name="ae"/>
<glyph horiz-adv-x="461" d="M332.5 -69.5q17.5 -14.5 17.5 -43.5q0 -39 -31 -63t-78 -24q-37 0 -71 17l20 40q21 -9 40 -9q22 0 35.5 9t13.5 24q0 11 -8.5 17.5t-23.5 6.5q-14 0 -31 -6l-17 17l24 74q-88 14 -135.5 78t-47.5 172q0 121 59.5 186.5t169.5 65.5q51 0 91 -13t65 -37l-30 -96 q-48 43 -110 43q-59 0 -90.5 -38t-31.5 -111t30.5 -111.5t87.5 -38.5q62 0 122 52l28 -99q-26 -25 -63 -39.5t-82 -16.5l-22 -44q5 2 20 2q31 0 48.5 -14.5z" unicode="ç" glyph-name="ccedilla"/>
<glyph horiz-adv-x="512" d="M99.5 53q-59.5 66 -59.5 187q0 120 59.5 186t167.5 66q101 0 153.5 -59.5t52.5 -171.5q0 -25 -3 -48h-304q0 -60 33.5 -91.5t95.5 -31.5q43 0 82.5 12t70.5 35l13 -95q-34 -27 -83.5 -41t-108.5 -14q-110 0 -169.5 66zM346 285q0 50 -21.5 77t-62.5 27q-45 0 -69 -27.5 t-27 -76.5h180zM96 650l163 29l75 -153h-95z" unicode="è" glyph-name="egrave"/>
<glyph horiz-adv-x="512" d="M99.5 53q-59.5 66 -59.5 187q0 120 59.5 186t167.5 66q101 0 153.5 -59.5t52.5 -171.5q0 -25 -3 -48h-304q0 -60 33.5 -91.5t95.5 -31.5q43 0 82.5 12t70.5 35l13 -95q-34 -27 -83.5 -41t-108.5 -14q-110 0 -169.5 66zM346 285q0 50 -21.5 77t-62.5 27q-45 0 -69 -27.5 t-27 -76.5h180zM265 679l143 -24l-136 -129h-89z" unicode="é" glyph-name="eacute"/>
<glyph horiz-adv-x="512" d="M99.5 53q-59.5 66 -59.5 187q0 120 59.5 186t167.5 66q101 0 153.5 -59.5t52.5 -171.5q0 -25 -3 -48h-304q0 -60 33.5 -91.5t95.5 -31.5q43 0 82.5 12t70.5 35l13 -95q-34 -27 -83.5 -41t-108.5 -14q-110 0 -169.5 66zM346 285q0 50 -21.5 77t-62.5 27q-45 0 -69 -27.5 t-27 -76.5h180zM204 679h104l101 -153h-86l-67 77l-68 -77h-85z" unicode="ê" glyph-name="ecircumflex"/>
<glyph horiz-adv-x="512" d="M99.5 53q-59.5 66 -59.5 187q0 120 59.5 186t167.5 66q101 0 153.5 -59.5t52.5 -171.5q0 -25 -3 -48h-304q0 -60 33.5 -91.5t95.5 -31.5q43 0 82.5 12t70.5 35l13 -95q-34 -27 -83.5 -41t-108.5 -14q-110 0 -169.5 66zM346 285q0 50 -21.5 77t-62.5 27q-45 0 -69 -27.5 t-27 -76.5h180zM88 601q0 65 69 65q33 0 50.5 -16.5t17.5 -48.5q0 -66 -68 -66q-69 0 -69 66zM285 601q0 65 69 65q33 0 50.5 -16.5t17.5 -48.5q0 -66 -68 -66q-69 0 -69 66z" unicode="ë" glyph-name="edieresis"/>
<glyph horiz-adv-x="251" d="M64 479h122v-479h-122v479zM-34 650l163 29l75 -153h-95z" unicode="ì" glyph-name="igrave"/>
<glyph horiz-adv-x="251" d="M64 479h122v-479h-122v479zM135 679l143 -24l-136 -129h-89z" unicode="í" glyph-name="iacute"/>
<glyph horiz-adv-x="251" d="M64 479h122v-479h-122v479zM74 679h104l101 -153h-86l-67 77l-68 -77h-85z" unicode="î" glyph-name="icircumflex"/>
<glyph horiz-adv-x="251" d="M64 479h122v-479h-122v479zM-42 601q0 65 69 65q33 0 50.5 -16.5t17.5 -48.5q0 -66 -68 -66q-69 0 -69 66zM155 601q0 65 69 65q33 0 50.5 -16.5t17.5 -48.5q0 -66 -68 -66q-69 0 -69 66z" unicode="ï" glyph-name="idieresis"/>
<glyph horiz-adv-x="538" d="M458 491.5q41 -83.5 41 -186.5q0 -152 -58 -235t-165 -83q-113 0 -174.5 59.5t-61.5 169.5t48.5 169.5t138.5 59.5q37 0 77 -17t73 -48l7 1q-5 50 -31.5 92t-71.5 74l-40 -53h-81l61 87q-45 20 -88 28l18 94q70 -10 128 -38l28 39h90l-56 -75q76 -54 117 -137.5z M351.5 142q28.5 52 29.5 148q-68 54 -119 54q-47 0 -73 -33.5t-26 -95.5q0 -60 28 -92.5t80 -32.5t80.5 52z" unicode="ð" glyph-name="eth"/>
<glyph horiz-adv-x="529" d="M435.5 457q36.5 -35 36.5 -94v-363h-122v316q0 31 -18 49t-48 18q-24 0 -50 -14t-47 -38l-3 16l2 -16v-331h-122v479h100l10 -68q73 81 164 81q61 0 97.5 -35zM102 532q0 64 23.5 95t60.5 31q19 0 39 -6t47 -17q42 -17 56 -17t26 12.5t16 32.5l55 -9q-2 -57 -26.5 -92 t-63.5 -35q-16 0 -32.5 5.5t-41.5 15.5q-16 7 -31.5 12.5t-26.5 5.5q-14 0 -25 -12.5t-15 -33.5z" unicode="ñ" glyph-name="ntilde"/>
<glyph horiz-adv-x="542" d="M100 52.5q-60 65.5 -60 187.5q0 121 60 186.5t171 65.5q112 0 172 -65.5t60 -186.5q0 -122 -60 -187.5t-172 -65.5q-111 0 -171 65.5zM352 128.5q28 38.5 28 111.5t-28 111t-81 38t-80.5 -38t-27.5 -111t27.5 -111.5t80.5 -38.5t81 38.5zM111 650l163 29l75 -153h-95z " unicode="ò" glyph-name="ograve"/>
<glyph horiz-adv-x="542" d="M100 52.5q-60 65.5 -60 187.5q0 121 60 186.5t171 65.5q112 0 172 -65.5t60 -186.5q0 -122 -60 -187.5t-172 -65.5q-111 0 -171 65.5zM352 128.5q28 38.5 28 111.5t-28 111t-81 38t-80.5 -38t-27.5 -111t27.5 -111.5t80.5 -38.5t81 38.5zM280 679l143 -24l-136 -129h-89z " unicode="ó" glyph-name="oacute"/>
<glyph horiz-adv-x="542" d="M100 52.5q-60 65.5 -60 187.5q0 121 60 186.5t171 65.5q112 0 172 -65.5t60 -186.5q0 -122 -60 -187.5t-172 -65.5q-111 0 -171 65.5zM352 128.5q28 38.5 28 111.5t-28 111t-81 38t-80.5 -38t-27.5 -111t27.5 -111.5t80.5 -38.5t81 38.5zM219 679h104l101 -153h-86 l-67 77l-68 -77h-85z" unicode="ô" glyph-name="ocircumflex"/>
<glyph horiz-adv-x="542" d="M100 52.5q-60 65.5 -60 187.5q0 121 60 186.5t171 65.5q112 0 172 -65.5t60 -186.5q0 -122 -60 -187.5t-172 -65.5q-111 0 -171 65.5zM352 128.5q28 38.5 28 111.5t-28 111t-81 38t-80.5 -38t-27.5 -111t27.5 -111.5t80.5 -38.5t81 38.5zM110 532q0 64 23.5 95t60.5 31 q19 0 39 -6t47 -17q42 -17 56 -17t26 12.5t16 32.5l55 -9q-2 -57 -26.5 -92t-63.5 -35q-16 0 -32.5 5.5t-41.5 15.5q-16 7 -31.5 12.5t-26.5 5.5q-14 0 -25 -12.5t-15 -33.5z" unicode="õ" glyph-name="otilde"/>
<glyph horiz-adv-x="542" d="M100 52.5q-60 65.5 -60 187.5q0 121 60 186.5t171 65.5q112 0 172 -65.5t60 -186.5q0 -122 -60 -187.5t-172 -65.5q-111 0 -171 65.5zM352 128.5q28 38.5 28 111.5t-28 111t-81 38t-80.5 -38t-27.5 -111t27.5 -111.5t80.5 -38.5t81 38.5zM103 601q0 65 69 65 q33 0 50.5 -16.5t17.5 -48.5q0 -66 -68 -66q-69 0 -69 66zM300 601q0 65 69 65q33 0 50.5 -16.5t17.5 -48.5q0 -66 -68 -66q-69 0 -69 66z" unicode="ö" glyph-name="odieresis"/>
<glyph horiz-adv-x="570" d="M238.5 438.5q-17.5 16.5 -17.5 44.5t17.5 45t46.5 17q28 0 45.5 -17t17.5 -45t-17 -44.5t-46 -16.5t-46.5 16.5zM57 337h456v-104h-456v104zM238.5 43q-17.5 17 -17.5 44q0 28 17.5 45t46.5 17q28 0 45.5 -17t17.5 -45q0 -27 -17.5 -44t-45.5 -17q-29 0 -46.5 17z" unicode="÷" glyph-name="divide"/>
<glyph horiz-adv-x="542" d="M452 416q51 -65 51 -176q0 -122 -60 -187.5t-172 -65.5q-82 0 -136 36l-18 -23h-77l51 63q-51 66 -51 177q0 121 60 186.5t171 65.5q81 0 136 -35l18 23h78zM173 166l162 202q-24 21 -64 21q-53 0 -80.5 -38t-27.5 -111q0 -45 10 -74zM370 315l-164 -204q26 -21 65 -21 q53 0 81 38.5t28 111.5q0 45 -10 75z" unicode="ø" glyph-name="oslash"/>
<glyph horiz-adv-x="532" d="M467 479v-479h-100l-10 67q-72 -80 -163 -80q-61 0 -97.5 35t-36.5 94v363h122v-315q0 -31 18.5 -49.5t47.5 -18.5q25 0 51 14t46 39v330h122zM106 650l163 29l75 -153h-95z" unicode="ù" glyph-name="ugrave"/>
<glyph horiz-adv-x="532" d="M467 479v-479h-100l-10 67q-72 -80 -163 -80q-61 0 -97.5 35t-36.5 94v363h122v-315q0 -31 18.5 -49.5t47.5 -18.5q25 0 51 14t46 39v330h122zM275 679l143 -24l-136 -129h-89z" unicode="ú" glyph-name="uacute"/>
<glyph horiz-adv-x="532" d="M467 479v-479h-100l-10 67q-72 -80 -163 -80q-61 0 -97.5 35t-36.5 94v363h122v-315q0 -31 18.5 -49.5t47.5 -18.5q25 0 51 14t46 39v330h122zM214 679h104l101 -153h-86l-67 77l-68 -77h-85z" unicode="û" glyph-name="ucircumflex"/>
<glyph horiz-adv-x="532" d="M467 479v-479h-100l-10 67q-72 -80 -163 -80q-61 0 -97.5 35t-36.5 94v363h122v-315q0 -31 18.5 -49.5t47.5 -18.5q25 0 51 14t46 39v330h122zM98 601q0 65 69 65q33 0 50.5 -16.5t17.5 -48.5q0 -66 -68 -66q-69 0 -69 66zM295 601q0 65 69 65q33 0 50.5 -16.5 t17.5 -48.5q0 -66 -68 -66q-69 0 -69 66z" unicode="ü" glyph-name="udieresis"/>
<glyph horiz-adv-x="504" d="M490 479l-176 -492q-33 -93 -78.5 -140t-114.5 -47q-28 0 -56 6l-16 101q13 -4 34 -4q37 0 64.5 18t41.5 70l-175 488h137l110 -339l103 339h126zM258 679l143 -24l-136 -129h-89z" unicode="ý" glyph-name="yacute"/>
<glyph horiz-adv-x="551" d="M417.5 462q43.5 -30 68.5 -86.5t25 -134.5q0 -120 -50 -187t-138 -67q-86 0 -137 65v-252h-122v890h122v-251q25 27 60 40t74 13q54 0 97.5 -30zM357.5 129q27.5 39 27.5 111q0 71 -27.5 110t-77.5 39q-27 0 -52 -11.5t-42 -32.5v-211q17 -21 41.5 -32.5t51.5 -11.5 q51 0 78.5 39z" unicode="þ" glyph-name="thorn"/>
<glyph horiz-adv-x="251" d="M64 479h122v-479h-122v479z" unicode="ı" glyph-name="dotlessi"/>
<glyph horiz-adv-x="254" d="M-5 -194l-16 101q13 -4 36 -4q25 0 38.5 13t13.5 37v526h122v-526q0 -75 -39 -114t-115 -39q-23 0 -40 6z" unicode="ȷ" glyph-name="uni0237"/>
<glyph d="M-341 650l163 29l75 -153h-95z" unicode="̀" glyph-name="gravecomb"/>
<glyph d="M-166 679l143 -24l-136 -129h-89z" unicode="́" glyph-name="acutecomb"/>
<glyph d="M-308 679h104l101 -153h-86l-67 77l-68 -77h-85z" unicode="̂" glyph-name="uni0302"/>
<glyph d="M-391 532q0 64 23.5 95t60.5 31q19 0 39 -6t47 -17q42 -17 56 -17t26 12.5t16 32.5l55 -9q-2 -57 -26.5 -92t-63.5 -35q-16 0 -32.5 5.5t-41.5 15.5q-16 7 -31.5 12.5t-26.5 5.5q-14 0 -25 -12.5t-15 -33.5z" unicode="̃" glyph-name="tildecomb"/>
<glyph d="M-362 633h258v-95h-258v95z" unicode="̄" glyph-name="uni0304"/>
<glyph d="M-213 601q0 65 69 65q33 0 50.5 -16.5t17.5 -48.5q0 -66 -68 -66q-69 0 -69 66z" unicode="̇" glyph-name="uni0307"/>
<glyph d="M-405 601q0 65 69 65q33 0 50.5 -16.5t17.5 -48.5q0 -66 -68 -66q-69 0 -69 66zM-208 601q0 65 69 65q33 0 50.5 -16.5t17.5 -48.5q0 -66 -68 -66q-69 0 -69 66z" unicode="̈" glyph-name="uni0308"/>
<glyph d="M-300.5 538q-31.5 28 -31.5 78q0 48 31.5 75.5t86.5 27.5t86 -27.5t31 -75.5q0 -50 -31 -78t-86 -28t-86.5 28zM-179.5 580.5q12.5 12.5 12.5 35.5q0 22 -12.5 33.5t-35.5 11.5t-35 -11.5t-12 -33.5q0 -23 12 -35.5t35 -12.5t35.5 12.5z" unicode="̊" glyph-name="uni030A"/>
<glyph d="M-250 -183l20 40q21 -9 40 -9q22 0 35.5 9t13.5 24q0 11 -8.5 17.5t-23.5 6.5t-31 -6l-17 17l29 88l64 -4l-28 -57q5 2 20 2q31 0 48.5 -14.5t17.5 -43.5q0 -39 -31 -63t-78 -24q-37 0 -71 17z" unicode="̧" glyph-name="uni0327"/>
<glyph horiz-adv-x="307" d="M132 614l-74 -31l-9 70l92 45h77v-368h-86v284z" glyph-name="one.numr"/>
<glyph horiz-adv-x="376" d="M55 395q64 53 111.5 108t47.5 89q0 18 -13 28.5t-35 10.5q-40 0 -92 -35l-13 70q50 37 119 37q59 0 91 -26.5t32 -73.5q0 -52 -36 -101t-98 -101h143v-71h-242z" glyph-name="two.numr"/>
<glyph horiz-adv-x="366" d="M51 342l10 73q53 -25 94 -25q34 0 51.5 12t17.5 34q0 23 -20.5 35.5t-58.5 12.5h-25l-4 62h31q34 0 51.5 12t17.5 34q0 19 -14 29t-42 10q-45 0 -92 -28l-11 68q46 32 118 32q65 0 98.5 -24.5t33.5 -72.5q0 -31 -16.5 -53t-48.5 -34q71 -25 71 -92q0 -54 -36.5 -82 t-106.5 -28q-63 0 -119 25z" glyph-name="three.numr"/>
</font>
</defs>
</svg>
